<?xml version="1.0" encoding="utf-8"?>
<!-- Generator: Adobe Illustrator 25.2.0, SVG Export Plug-In . SVG Version: 6.00 Build 0)  -->
<svg version="1.1" id="Layer_1" xmlns="http://www.w3.org/2000/svg" xmlns:xlink="http://www.w3.org/1999/xlink" x="0px" y="0px"
	 viewBox="0 0 600 600" style="enable-background:new 0 0 600 600;" xml:space="preserve">
<style type="text/css">
	.st0{fill:url(#SVGID_1_);}
	.st1{fill:url(#SVGID_2_);}
	.st2{fill:url(#SVGID_3_);}
	.st3{fill:url(#SVGID_4_);}
	.st4{fill:url(#SVGID_5_);}
	.st5{fill:url(#SVGID_6_);}
</style>
<g>
	<linearGradient id="SVGID_1_" gradientUnits="userSpaceOnUse" x1="71.0919" y1="175.6537" x2="336.2196" y2="175.6537">
		<stop  offset="0.0257" style="stop-color:#4A140F"/>
		<stop  offset="0.514" style="stop-color:#781214"/>
		<stop  offset="1" style="stop-color:#4A140F"/>
	</linearGradient>
	<path class="st0" d="M336.22,213.16c-35.17-3.47-85.13-4.33-143.15,8.23c-51.4,11.13-92.6,29.22-121.97,44.95
		c10.5-78.8,57.19-145.54,122-181.37c22.22,12.86,48.53,30.55,75.76,54.65C297.91,165.34,319.97,191.24,336.22,213.16z"/>
	<linearGradient id="SVGID_2_" gradientUnits="userSpaceOnUse" x1="266.9124" y1="35.2918" x2="442.888" y2="228.3263">
		<stop  offset="0" style="stop-color:#4A140F"/>
		<stop  offset="0.514" style="stop-color:#781214"/>
		<stop  offset="1" style="stop-color:#4A140F"/>
	</linearGradient>
	<path class="st1" d="M392.41,287.47c-15.2-33.25-40.13-78.4-80.26-123.88c-35.55-40.29-71.58-67.87-99.6-86.08
		c70.25-31.06,149.14-23.53,211.9,16.07c0.82,26.49-0.23,59.11-6.09,95.85C412.1,228.64,402.1,261.68,392.41,287.47z"/>
	<linearGradient id="SVGID_3_" gradientUnits="userSpaceOnUse" x1="512.4145" y1="153.2477" x2="408.6902" y2="389.8117">
		<stop  offset="0" style="stop-color:#4A140F"/>
		<stop  offset="0.514" style="stop-color:#781214"/>
		<stop  offset="1" style="stop-color:#4A140F"/>
	</linearGradient>
	<path class="st2" d="M355.39,378.37c20.16-30.25,45.41-75.21,63.4-134.09c15.94-52.16,21.05-98.46,22.33-132.87
		c60.69,48.23,93.52,123.4,91.64,199.87c-21.66,13.87-49.35,29.09-82.86,42C414.15,367.04,381.68,374.37,355.39,378.37z"/>
	<linearGradient id="SVGID_4_" gradientUnits="userSpaceOnUse" x1="298.0782" y1="463.3259" x2="539.7397" y2="408.8423">
		<stop  offset="0.0257" style="stop-color:#4A140F"/>
		<stop  offset="0.514" style="stop-color:#781214"/>
		<stop  offset="1" style="stop-color:#4A140F"/>
	</linearGradient>
	<path class="st3" d="M268.02,390.17c35.19,3.29,85.15,3.9,143.11-8.96c51.35-11.39,92.46-29.69,121.76-45.56
		c-10.13,78.86-56.51,145.83-121.15,181.99c-22.28-12.75-48.68-30.3-76.02-54.27C306.55,437.79,284.37,412,268.02,390.17z"/>
	<linearGradient id="SVGID_5_" gradientUnits="userSpaceOnUse" x1="155.9805" y1="363.6178" x2="325.9198" y2="567.7249">
		<stop  offset="0.0257" style="stop-color:#4A140F"/>
		<stop  offset="0.514" style="stop-color:#781214"/>
		<stop  offset="1" style="stop-color:#4A140F"/>
	</linearGradient>
	<path class="st4" d="M210.18,310.11c14.37,33.65,38.17,79.46,77.15,126.01c34.53,41.24,69.87,69.78,97.43,88.75
		c-71,29.14-149.67,19.49-211.43-21.8c-0.16-26.5,1.7-59.09,8.48-95.66C189.04,368.39,199.85,335.63,210.18,310.11z"/>
	<linearGradient id="SVGID_6_" gradientUnits="userSpaceOnUse" x1="174.1149" y1="206.4497" x2="88.542" y2="450.4235">
		<stop  offset="0.0257" style="stop-color:#4A140F"/>
		<stop  offset="0.514" style="stop-color:#781214"/>
		<stop  offset="1" style="stop-color:#4A140F"/>
	</linearGradient>
	<path class="st5" d="M246.81,224.23c-21.07,29.57-47.67,73.67-67.44,131.93c-17.51,51.61-24.03,97.72-26.35,132.07
		c-59.19-50.2-89.73-126.43-85.53-202.79c22.07-13.15,50.21-27.45,84.09-39.24C187.73,233.61,220.41,227.36,246.81,224.23z"/>
</g>
</svg>
