<?xml version="1.0" encoding="utf-8"?>
<!-- Generator: Adobe Illustrator 25.2.0, SVG Export Plug-In . SVG Version: 6.00 Build 0)  -->
<svg version="1.1" id="Layer_1" xmlns="http://www.w3.org/2000/svg" xmlns:xlink="http://www.w3.org/1999/xlink" x="0px" y="0px"
	 viewBox="0 0 2000 600" style="enable-background:new 0 0 2000 600;" xml:space="preserve">
<style type="text/css">
	.st0{fill:url(#SVGID_1_);}
	.st1{fill:url(#SVGID_2_);}
	.st2{fill:url(#SVGID_3_);}
	.st3{fill:url(#SVGID_4_);}
	.st4{fill:url(#SVGID_5_);}
	.st5{fill:url(#SVGID_6_);}
</style>
<linearGradient id="SVGID_1_" gradientUnits="userSpaceOnUse" x1="47.4198" y1="178.3424" x2="312.5475" y2="178.3424">
	<stop  offset="0.0257" style="stop-color:#4A140F"/>
	<stop  offset="0.514" style="stop-color:#781214"/>
	<stop  offset="1" style="stop-color:#4A140F"/>
</linearGradient>
<path class="st0" d="M312.55,215.85c-35.17-3.47-85.13-4.33-143.15,8.23c-51.4,11.13-92.6,29.22-121.97,44.95
	c10.5-78.8,57.19-145.54,122-181.37c22.22,12.86,48.53,30.55,75.76,54.65C274.24,168.03,296.3,193.93,312.55,215.85z"/>
<linearGradient id="SVGID_2_" gradientUnits="userSpaceOnUse" x1="243.2403" y1="37.9806" x2="419.2159" y2="231.015">
	<stop  offset="0" style="stop-color:#4A140F"/>
	<stop  offset="0.514" style="stop-color:#781214"/>
	<stop  offset="1" style="stop-color:#4A140F"/>
</linearGradient>
<path class="st1" d="M368.74,290.16c-15.2-33.25-40.13-78.4-80.26-123.88c-35.55-40.29-71.58-67.87-99.6-86.08
	c70.25-31.06,149.14-23.53,211.9,16.07c0.82,26.49-0.23,59.11-6.09,95.85C388.43,231.33,378.43,264.37,368.74,290.16z"/>
<linearGradient id="SVGID_3_" gradientUnits="userSpaceOnUse" x1="488.7424" y1="155.9364" x2="385.0182" y2="392.5004">
	<stop  offset="0" style="stop-color:#4A140F"/>
	<stop  offset="0.514" style="stop-color:#781214"/>
	<stop  offset="1" style="stop-color:#4A140F"/>
</linearGradient>
<path class="st2" d="M331.72,381.06c20.16-30.25,45.41-75.21,63.4-134.09c15.94-52.16,21.05-98.46,22.33-132.87
	c60.69,48.23,93.52,123.4,91.64,199.87c-21.66,13.87-49.35,29.09-82.86,42C390.48,369.73,358.01,377.06,331.72,381.06z"/>
<linearGradient id="SVGID_4_" gradientUnits="userSpaceOnUse" x1="274.4061" y1="466.0146" x2="516.0676" y2="411.531">
	<stop  offset="0.0257" style="stop-color:#4A140F"/>
	<stop  offset="0.514" style="stop-color:#781214"/>
	<stop  offset="1" style="stop-color:#4A140F"/>
</linearGradient>
<path class="st3" d="M244.35,392.86c35.19,3.29,85.15,3.9,143.11-8.96c51.35-11.39,92.46-29.69,121.76-45.57
	c-10.13,78.86-56.51,145.83-121.15,181.99c-22.28-12.75-48.68-30.3-76.02-54.27C282.88,440.48,260.7,414.69,244.35,392.86z"/>
<linearGradient id="SVGID_5_" gradientUnits="userSpaceOnUse" x1="132.3084" y1="366.3065" x2="302.2477" y2="570.4136">
	<stop  offset="0.0257" style="stop-color:#4A140F"/>
	<stop  offset="0.514" style="stop-color:#781214"/>
	<stop  offset="1" style="stop-color:#4A140F"/>
</linearGradient>
<path class="st4" d="M186.51,312.8c14.37,33.65,38.17,79.46,77.15,126.01c34.53,41.24,69.87,69.78,97.43,88.75
	c-71,29.14-149.67,19.49-211.43-21.8c-0.16-26.5,1.7-59.09,8.48-95.66C165.36,371.08,176.18,338.32,186.51,312.8z"/>
<linearGradient id="SVGID_6_" gradientUnits="userSpaceOnUse" x1="150.4428" y1="209.1384" x2="64.8699" y2="453.1122">
	<stop  offset="0.0257" style="stop-color:#4A140F"/>
	<stop  offset="0.514" style="stop-color:#781214"/>
	<stop  offset="1" style="stop-color:#4A140F"/>
</linearGradient>
<path class="st5" d="M223.13,226.91c-21.07,29.57-47.67,73.67-67.44,131.93c-17.51,51.61-24.03,97.72-26.35,132.07
	c-59.19-50.2-89.73-126.43-85.53-202.79c22.07-13.15,50.21-27.45,84.09-39.24C164.06,236.3,196.74,230.05,223.13,226.91z"/>
<g>
	<path d="M589.49,299.42c20.9-31.82,50.64-48.48,89.21-49.99v40.53c-38.57,1.51-67.13,16.66-85.68,45.48V482.7h35.33v30.62H521.92
		V482.7h26.5V286.36h-26.5v-30.62h26.5h24.29L589.49,299.42z"/>
	<path d="M710.49,255.74h71.1V482.7h26.5v30.62h-97.6V482.7h26.5V286.36h-26.5V255.74z M741.85,214.54
		c-4.13-3.45-6.56-7.05-7.29-10.81c-0.74-3.75-1.1-8.78-1.1-15.09c0-6.6,0.37-11.78,1.1-15.54c0.73-3.75,3.16-7.35,7.29-10.81
		c4.12-3.45,10.01-5.18,17.67-5.18c6.18,0,11.19,0.83,15.02,2.48c3.82,1.65,6.47,4.21,7.95,7.66c1.47,3.46,2.43,6.68,2.87,9.68
		c0.44,3,0.66,6.91,0.66,11.71c0,4.5-0.22,8.18-0.66,11.03c-0.44,2.86-1.4,6.08-2.87,9.68c-1.48,3.6-4.13,6.23-7.95,7.88
		c-3.83,1.65-8.83,2.48-15.02,2.48C751.86,219.72,745.97,217.99,741.85,214.54z"/>
	<path d="M858.88,255.74h50.79l13.69,25.67c28.85-21.31,58.88-31.97,90.09-31.97c50.93,0,76.4,27.17,76.4,81.51V482.7h26.5v30.62
		h-96.28V482.7h24.73V333.65c0-17.41-3.17-29.79-9.5-37.15c-6.33-7.35-17-11.03-32.02-11.03c-25.62,0-50.06,9.31-73.31,27.92V482.7
		h24.73v30.62h-95.84V482.7h26.5V286.36h-26.5V255.74z"/>
	<path d="M1223.46,511.97c-13.99-5.1-24.81-11.55-32.46-19.36c-7.66-7.8-13.77-18.01-18.33-30.62c-4.57-12.61-7.44-24.69-8.61-36.25
		c-1.18-11.55-1.77-25.29-1.77-41.2c0-15.91,0.59-29.64,1.77-41.2c1.17-11.55,4.04-23.64,8.61-36.25
		c4.56-12.61,10.67-22.81,18.33-30.62c7.65-7.8,18.47-14.26,32.46-19.36c13.98-5.1,30.69-7.66,50.13-7.66
		c19.43,0,36.14,2.55,50.13,7.66c13.98,5.11,24.8,11.56,32.46,19.36c7.65,7.81,13.76,18.01,18.33,30.62
		c4.56,12.61,7.43,24.7,8.61,36.25c1.17,11.56,1.77,25.29,1.77,41.2c0,15.92-0.59,29.65-1.77,41.2
		c-1.18,11.56-4.05,23.64-8.61,36.25c-4.57,12.61-10.67,22.82-18.33,30.62c-7.66,7.81-18.48,14.26-32.46,19.36
		c-13.99,5.1-30.69,7.66-50.13,7.66C1254.15,519.63,1237.44,517.07,1223.46,511.97z M1300.52,480.23
		c7.65-2.25,13.84-5.85,18.55-10.81c4.71-4.95,8.54-10.13,11.48-15.54c2.94-5.4,5.08-12.31,6.4-20.71
		c1.32-8.4,2.21-16.06,2.65-22.97c0.44-6.9,0.66-15.46,0.66-25.67c0-10.2-0.22-18.76-0.66-25.67c-0.44-6.9-1.33-14.56-2.65-22.97
		c-1.33-8.4-3.46-15.31-6.4-20.71c-2.95-5.4-6.78-10.58-11.48-15.54c-4.71-4.95-10.9-8.56-18.55-10.81
		c-7.66-2.25-16.64-3.38-26.94-3.38c-10.31,0-19.29,1.13-26.94,3.38c-7.66,2.25-13.84,5.85-18.55,10.81
		c-4.71,4.95-8.54,10.13-11.48,15.54c-2.95,5.4-5.08,12.31-6.4,20.71c-1.33,8.41-2.21,16.06-2.65,22.97
		c-0.44,6.91-0.66,15.46-0.66,25.67c0,10.21,0.22,18.77,0.66,25.67c0.44,6.91,1.33,14.57,2.65,22.97c1.32,8.41,3.46,15.31,6.4,20.71
		c2.94,5.4,6.77,10.58,11.48,15.54c4.71,4.95,10.89,8.56,18.55,10.81c7.65,2.25,16.63,3.38,26.94,3.38
		C1283.88,483.6,1292.86,482.48,1300.52,480.23z"/>
	<path d="M1630.86,255.74v94.57h-28.71c-4.13-43.23-25.77-64.85-64.92-64.85c-13.25,0-24.22,2.63-32.9,7.88
		c-8.69,5.26-15.02,12.99-18.99,23.19c-3.97,10.21-6.62,20.42-7.95,30.62c-1.33,10.21-1.99,22.67-1.99,37.38
		c0,12.61,0.29,23.19,0.88,31.75c0.59,8.56,2.13,17.42,4.64,26.57c2.5,9.16,5.96,16.44,10.38,21.84c4.42,5.4,10.6,9.91,18.55,13.51
		c7.95,3.6,17.51,5.4,28.71,5.4c22.37,0,37.61-4.12,45.71-12.38c8.09-8.25,12.59-21.39,13.47-39.4l35.77,1.8
		c-0.88,14.41-2.8,26.34-5.74,35.8c-2.95,9.46-7.88,18.24-14.79,26.34c-6.92,8.11-16.78,14.11-29.59,18.01s-28.78,5.85-47.92,5.85
		c-18.55,0-34.45-2.55-47.7-7.66c-13.25-5.1-23.48-11.55-30.69-19.36c-7.22-7.8-12.88-18.08-17-30.85
		c-4.13-12.76-6.7-24.77-7.73-36.03c-1.04-11.26-1.54-24.99-1.54-41.2c0-15.91,0.59-29.72,1.77-41.43
		c1.17-11.71,3.9-23.79,8.17-36.25c4.26-12.45,10.08-22.59,17.44-30.4c7.36-7.8,17.51-14.26,30.47-19.36
		c12.95-5.1,28.41-7.66,46.37-7.66c28.27,0,50.2,9.61,65.8,28.82l-0.44-22.52H1630.86z"/>
	<path d="M1742.37,511.97c-13.99-5.1-24.81-11.55-32.46-19.36c-7.66-7.8-13.77-18.01-18.33-30.62c-4.57-12.61-7.44-24.69-8.61-36.25
		c-1.18-11.55-1.77-25.29-1.77-41.2c0-15.91,0.59-29.64,1.77-41.2c1.17-11.55,4.04-23.64,8.61-36.25
		c4.56-12.61,10.67-22.81,18.33-30.62c7.65-7.8,18.47-14.26,32.46-19.36c13.98-5.1,30.69-7.66,50.13-7.66
		c19.43,0,36.14,2.55,50.13,7.66c13.98,5.11,24.8,11.56,32.46,19.36c7.65,7.81,13.76,18.01,18.33,30.62
		c4.56,12.61,7.43,24.7,8.61,36.25c1.17,11.56,1.77,25.29,1.77,41.2c0,15.92-0.59,29.65-1.77,41.2
		c-1.18,11.56-4.05,23.64-8.61,36.25c-4.57,12.61-10.67,22.82-18.33,30.62c-7.66,7.81-18.48,14.26-32.46,19.36
		c-13.99,5.1-30.69,7.66-50.13,7.66C1773.07,519.63,1756.35,517.07,1742.37,511.97z M1819.44,480.23
		c7.65-2.25,13.84-5.85,18.55-10.81c4.71-4.95,8.54-10.13,11.48-15.54c2.94-5.4,5.08-12.31,6.4-20.71
		c1.32-8.4,2.21-16.06,2.65-22.97c0.44-6.9,0.66-15.46,0.66-25.67c0-10.2-0.22-18.76-0.66-25.67c-0.44-6.9-1.33-14.56-2.65-22.97
		c-1.33-8.4-3.46-15.31-6.4-20.71c-2.95-5.4-6.78-10.58-11.48-15.54c-4.71-4.95-10.9-8.56-18.55-10.81
		c-7.66-2.25-16.64-3.38-26.94-3.38c-10.31,0-19.29,1.13-26.94,3.38c-7.66,2.25-13.84,5.85-18.55,10.81
		c-4.71,4.95-8.54,10.13-11.48,15.54c-2.95,5.4-5.08,12.31-6.4,20.71c-1.33,8.41-2.21,16.06-2.65,22.97
		c-0.44,6.91-0.66,15.46-0.66,25.67c0,10.21,0.22,18.77,0.66,25.67c0.44,6.91,1.33,14.57,2.65,22.97c1.32,8.41,3.46,15.31,6.4,20.71
		c2.94,5.4,6.77,10.58,11.48,15.54c4.71,4.95,10.89,8.56,18.55,10.81c7.65,2.25,16.63,3.38,26.94,3.38
		C1802.8,483.6,1811.78,482.48,1819.44,480.23z"/>
</g>
</svg>
